<svg viewBox="0 0 640 400" fill="none" xmlns="http://www.w3.org/2000/svg" role="img" aria-label="Schema: Energieaudit nach DIN EN 16247 – geprüfte Checkliste mit Lupe">
<rect x="8" y="8" width="624" height="384" rx="10" fill="#ffffff" stroke="#dbe4dc"/>
<g stroke="#dbe4dc" stroke-width="1"><line x1="48" y1="8" x2="48" y2="13"/><line x1="48" y1="387" x2="48" y2="392"/><line x1="92" y1="8" x2="92" y2="13"/><line x1="92" y1="387" x2="92" y2="392"/><line x1="136" y1="8" x2="136" y2="13"/><line x1="136" y1="387" x2="136" y2="392"/><line x1="180" y1="8" x2="180" y2="13"/><line x1="180" y1="387" x2="180" y2="392"/><line x1="224" y1="8" x2="224" y2="13"/><line x1="224" y1="387" x2="224" y2="392"/><line x1="268" y1="8" x2="268" y2="13"/><line x1="268" y1="387" x2="268" y2="392"/><line x1="312" y1="8" x2="312" y2="13"/><line x1="312" y1="387" x2="312" y2="392"/><line x1="356" y1="8" x2="356" y2="13"/><line x1="356" y1="387" x2="356" y2="392"/><line x1="400" y1="8" x2="400" y2="13"/><line x1="400" y1="387" x2="400" y2="392"/><line x1="444" y1="8" x2="444" y2="13"/><line x1="444" y1="387" x2="444" y2="392"/><line x1="488" y1="8" x2="488" y2="13"/><line x1="488" y1="387" x2="488" y2="392"/><line x1="532" y1="8" x2="532" y2="13"/><line x1="532" y1="387" x2="532" y2="392"/><line x1="576" y1="8" x2="576" y2="13"/><line x1="576" y1="387" x2="576" y2="392"/><line x1="8" y1="48" x2="13" y2="48"/><line x1="627" y1="48" x2="632" y2="48"/><line x1="8" y1="92" x2="13" y2="92"/><line x1="627" y1="92" x2="632" y2="92"/><line x1="8" y1="136" x2="13" y2="136"/><line x1="627" y1="136" x2="632" y2="136"/><line x1="8" y1="180" x2="13" y2="180"/><line x1="627" y1="180" x2="632" y2="180"/><line x1="8" y1="224" x2="13" y2="224"/><line x1="627" y1="224" x2="632" y2="224"/><line x1="8" y1="268" x2="13" y2="268"/><line x1="627" y1="268" x2="632" y2="268"/><line x1="8" y1="312" x2="13" y2="312"/><line x1="627" y1="312" x2="632" y2="312"/><line x1="8" y1="356" x2="13" y2="356"/><line x1="627" y1="356" x2="632" y2="356"/></g>

<path d="M150 110h180l60 60v170H150Z" fill="#fff" stroke="#0d3b2a" stroke-width="2.2"/>
<path d="M330 110v60h60" fill="#f7f8f4" stroke="#0d3b2a" stroke-width="2.2"/>
<rect x="176" y="150" width="18" height="18" rx="4" fill="#e3f0e6" stroke="#1e5b3f" stroke-width="1.6"/><path d="M180 158l4 5 7-9" stroke="#1e5b3f" stroke-width="2" stroke-linecap="round" stroke-linejoin="round"/><line x1="208" y1="159" x2="330" y2="159" stroke="#dbe4dc" stroke-width="5" stroke-linecap="round"/><rect x="176" y="188" width="18" height="18" rx="4" fill="#e3f0e6" stroke="#1e5b3f" stroke-width="1.6"/><path d="M180 196l4 5 7-9" stroke="#1e5b3f" stroke-width="2" stroke-linecap="round" stroke-linejoin="round"/><line x1="208" y1="197" x2="312" y2="197" stroke="#dbe4dc" stroke-width="5" stroke-linecap="round"/><rect x="176" y="226" width="18" height="18" rx="4" fill="#e3f0e6" stroke="#1e5b3f" stroke-width="1.6"/><path d="M180 234l4 5 7-9" stroke="#1e5b3f" stroke-width="2" stroke-linecap="round" stroke-linejoin="round"/><line x1="208" y1="235" x2="294" y2="235" stroke="#dbe4dc" stroke-width="5" stroke-linecap="round"/><rect x="176" y="264" width="18" height="18" rx="4" fill="#e3f0e6" stroke="#1e5b3f" stroke-width="1.6"/><path d="M180 272l4 5 7-9" stroke="#1e5b3f" stroke-width="2" stroke-linecap="round" stroke-linejoin="round"/><line x1="208" y1="273" x2="276" y2="273" stroke="#dbe4dc" stroke-width="5" stroke-linecap="round"/>
<rect x="150" y="86" width="150" height="26" rx="6" fill="#0d3b2a"/>
<text x="162" y="103" font-family='IBM Plex Mono, monospace' letter-spacing='.06em' font-size="10.5" fill="#fff">DIN EN 16247</text>
<circle cx="446" cy="256" r="52" fill="none" stroke="#1e5b3f" stroke-width="3"/>
<line x1="483" y1="293" x2="524" y2="334" stroke="#1e5b3f" stroke-width="6" stroke-linecap="round"/>
<path d="M420 268c10-22 34-30 52-22" stroke="#4caf78" stroke-width="2"/>
<circle cx="446" cy="204" r="2.5" fill="#1e5b3f" class="pulse-node"/><line x1="446" y1="204" x2="446" y2="150" stroke="#a8c4b2"/><line x1="446" y1="150" x2="492" y2="150" stroke="#a8c4b2"/>
<text x='498' y='153' text-anchor='start' font-family='IBM Plex Mono, monospace' letter-spacing='.06em' font-size='10' fill='#64796e'>PFLICHT F&#220;R</text>
<text x='498' y='166' text-anchor='start' font-family='IBM Plex Mono, monospace' letter-spacing='.06em' font-size='9' fill='#a8c4b2'>NICHT-KMU ALLE 4 JAHRE</text>
<text x='150' y='369' text-anchor='start' font-family='IBM Plex Mono, monospace' letter-spacing='.06em' font-size='9' fill='#a8c4b2'>AUS DER PFLICHT WIRD EIN INVESTITIONSFAHRPLAN</text>

<g font-family='IBM Plex Mono, monospace' letter-spacing='.06em'><rect x="420" y="366" width="204" height="20" fill="#f7f8f4" stroke="#dbe4dc"/>
<text x="432" y="379.5" font-size="8.5" fill="#64796e">GREEN · ENERGIEAUDIT</text></g>
</svg>